#!OML:ASF F:\VICON\USERDATA\INSTALL\rory3\rory3.ASF
:FULLY-SPECIFIED
:DEGREES
323
root 2.23218 16.3721 -4.40477 4.90119 -32.396 -0.96416
lowerback -4.15522 0.39447 1.62486
upperback -2.59381 0.456493 0.0926267
thorax -0.320447 0.204522 -0.798534
lowerneck -11.3268 7.23128 1.49779
upperneck 38.2092 12.1046 -4.90482
head 15.8984 4.48835 -0.404824
rclavicle -2.78772e-014 -7.62836e-015
rhumerus 42.3393 -20.6607 -43.7357
rradius 129.114
rwrist -59.9204
rhand -4.0864 -46.3325
rfingers 7.12502
rthumb 21.671 -75.1397
lclavicle -2.78772e-014 -7.62836e-015
lhumerus 19.2391 -26.3838 19.0558
lradius 32.545
lwrist 28.1264
lhand -16.0799 -22.5331
lfingers 7.12502
lthumb 10.1231 7.20333
rfemur -20.5361 -12.3687 20.922
rtibia 53.324
rfoot -33.1503 -29.9023
rtoes 0.0913491
lfemur -26.7291 -11.4877 3.09577
ltibia 16.861
lfoot 9.59992 16.6683
ltoes -10.179
324
root 2.22354 16.3645 -4.42406 4.86135 -32.2564 -0.869847
lowerback -3.96489 0.329334 1.37931
upperback -2.83542 0.381797 0.229026
thorax -0.678807 0.166838 -0.525705
lowerneck -10.8845 7.16522 1.09864
upperneck 38.2963 12.0734 -4.83199
head 15.7968 4.4365 -0.334017
rclavicle -4.28288e-014 1.09332e-015
rhumerus 42.3195 -19.9164 -43.7431
rradius 129.097
rwrist -59.7953
rhand -4.95402 -45.6956
rfingers 7.12502
rthumb 20.8376 -74.5966
lclavicle -4.28288e-014 1.09332e-015
lhumerus 19.5527 -28.018 19.0205
lradius 31.9357
lwrist 29.2422
lhand -16.5694 -22.7419
lfingers 7.12502
lthumb 9.65077 7.017
rfemur -20.6519 -12.4151 20.9174
rtibia 53.4971
rfoot -33.4239 -29.7114
rtoes 0.537551
lfemur -26.8179 -11.9229 3.2281
ltibia 16.7648
lfoot 9.55575 17.1693
ltoes -9.34906
325
root 2.21674 16.3501 -4.45186 4.87143 -31.9707 -0.933895
lowerback -3.82521 0.323224 1.3248
upperback -2.87472 0.378233 0.291915
thorax -0.797874 0.165496 -0.431689
lowerneck -10.9629 7.04617 0.879016
upperneck 38.434 11.9246 -4.71757
head 15.8504 4.35039 -0.270461
rclavicle 5.5551e-014 8.59744e-015
rhumerus 42.35 -19.8672 -43.9028
rradius 129.145
rwrist -59.7587
rhand -4.88837 -45.7516
rfingers 7.12502
rthumb 20.9007 -74.6456
lclavicle 5.5551e-014 8.59744e-015
lhumerus 18.8077 -27.4283 20.251
lradius 32.0692
lwrist 27.8299
lhand -16.2936 -22.4438
lfingers 7.12502
lthumb 9.91694 7.30265
rfemur -20.7941 -12.5462 21.1084
rtibia 53.7045
rfoot -33.8136 -29.4344
rtoes 1.35814
lfemur -26.9811 -12.0798 3.43326
ltibia 16.6695
lfoot 9.58981 17.1783
ltoes -8.69651
326
root 2.20756 16.3417 -4.46871 4.76317 -31.7482 -0.905941
lowerback -3.91135 0.335825 1.34968
upperback -2.73544 0.392477 0.236974
thorax -0.606006 0.17405 -0.500604
lowerneck -11.335 6.90747 0.881616
upperneck 38.5904 11.7458 -4.72272
head 16.0138 4.25711 -0.286505
rclavicle -4.91371e-015 -2.93207e-015
rhumerus 42.4349 -20.0851 -44.1474
rradius 129.249
rwrist -60.0441
rhand -4.4576 -46.1602
rfingers 7.12502
rthumb 21.3145 -75.0081
lclavicle -4.91371e-015 -2.93207e-015
lhumerus 18.6037 -27.2564 20.8918
lradius 32.0291
lwrist 27.4049
lhand -16.4281 -22.1626
lfingers 7.12502
lthumb 9.78712 7.58998
rfemur -20.8269 -12.8469 21.1548
rtibia 53.8999
rfoot -33.7489 -29.6571
rtoes 0.98842
lfemur -26.9897 -12.0608 3.39503
ltibia 16.6301
lfoot 9.85065 16.7632
ltoes -9.62344
327
root 2.1975 16.3333 -4.4833 4.7004 -31.6409 -0.842377
lowerback -4.00094 0.310615 1.31519
upperback -2.72513 0.358283 0.235582
thorax -0.546235 0.157769 -0.483365
lowerneck -11.3325 6.8291 0.834393
upperneck 38.664 11.7003 -4.86384
head 16.0613 4.20715 -0.347188
rclavicle 1.46293e-015 -3.18055e-015
rhumerus 42.5372 -19.9457 -44.347
rradius 129.313
rwrist -60.5219
rhand -4.46575 -46.1405
rfingers 7.12502
rthumb 21.3067 -74.9893
lclavicle 1.46293e-015 -3.18055e-015
lhumerus 18.2946 -27.5321 21.3921
lradius 31.9572
lwrist 27.4283
lhand -16.3729 -22.1725
lfingers 7.12502
lthumb 9.84041 7.5776
rfemur -20.9321 -13.0166 21.1759
rtibia 54.0716
rfoot -33.4978 -30.1125
rtoes 0.245936
lfemur -27.0519 -11.8859 3.30187
ltibia 16.6758
lfoot 9.98195 16.3847
ltoes -10.2158
328
root 2.188 16.3234 -4.49864 4.71704 -31.5685 -0.928828
lowerback -3.98234 0.340974 1.37423
upperback -2.7469 0.397325 0.255226
thorax -0.57807 0.176347 -0.495137
lowerneck -11.4915 6.74969 0.937628
upperneck 38.913 11.6414 -5.01526
head 16.2529 4.15903 -0.43364
rclavicle 9.7653e-014 1.03865e-014
rhumerus 42.4942 -19.7473 -44.5001
rradius 129.356
rwrist -60.7115
rhand -5.00694 -45.6657
rfingers 7.12502
rthumb 20.7867 -74.5723
lclavicle 9.7653e-014 1.03865e-014
lhumerus 17.8689 -27.6121 22.0927
lradius 31.9664
lwrist 27.0338
lhand -16.0036 -22.5409
lfingers 7.12502
lthumb 10.1966 7.19201
rfemur -20.9803 -13.0272 21.3177
rtibia 54.197
rfoot -33.8138 -29.939
rtoes 0.793536
lfemur -27.1221 -11.7239 3.39319
ltibia 16.7283
lfoot 10.0115 16.075
ltoes -10.5043
329
root 2.17845 16.3156 -4.51336 4.70648 -31.5389 -1.16028
lowerback -4.00209 0.426661 1.64505
upperback -2.60735 0.502231 0.22806
thorax -0.419589 0.227481 -0.670425
lowerneck -11.6961 6.64867 0.845172
upperneck 38.996 11.4721 -4.86908
head 16.3161 4.08627 -0.375863
rclavicle -6.74315e-015 -4.42296e-015
rhumerus 42.5055 -19.5661 -44.8083
rradius 129.353
rwrist -60.2818
rhand -5.80445 -45.0698
rfingers 7.12502
rthumb 20.0203 -74.0584
lclavicle -6.74315e-015 -4.42296e-015
lhumerus 17.3933 -27.1409 22.9427
lradius 32.0834
lwrist 26.1306
lhand -15.5533 -23.0397
lfingers 7.12502
lthumb 10.6311 6.6714
rfemur -20.8898 -13.0587 21.5689
rtibia 54.2852
rfoot -33.8872 -29.9468
rtoes 0.810578
lfemur -27.0103 -11.7007 3.6412
ltibia 16.7235
lfoot 10.0744 15.8864
ltoes -11.2482
330
root 2.1689 16.3109 -4.52841 4.60638 -31.4481 -1.28185
lowerback -4.00915 0.43744 1.81592
upperback -2.47063 0.510341 0.229934
thorax -0.273866 0.232018 -0.763351
lowerneck -11.2512 6.51796 0.219126
upperneck 38.5227 11.2704 -4.59162
head 15.8749 3.98711 -0.204585
rclavicle 2.63064e-014 -3.65267e-015
rhumerus 42.7144 -19.2173 -45.1978
rradius 129.305
rwrist -59.7863
rhand -6.26089 -44.7893
rfingers 7.12502
rthumb 19.5815 -73.8231
lclavicle 2.63064e-014 -3.65267e-015
lhumerus 17.1833 -27.2768 23.3525
lradius 32.0798
lwrist 25.8886
lhand -15.807 -23.2936
lfingers 7.12502
lthumb 10.3864 6.42985
rfemur -20.8072 -13.2202 21.7453
rtibia 54.3863
rfoot -33.3834 -30.5213
rtoes -0.371077
lfemur -26.8738 -12.1394 3.90427
ltibia 16.6741
lfoot 10.1172 16.2724
ltoes -11.4192
331
root 2.16045 16.3054 -4.5425 4.49308 -31.2932 -1.21431
lowerback -3.92165 0.435915 1.7495
upperback -2.47943 0.51264 0.237874
thorax -0.332218 0.233475 -0.71858
lowerneck -12.069 6.54903 1.17997
upperneck 39.4008 11.5346 -5.5002
head 16.7254 4.0414 -0.683865
rclavicle -1.22284e-014 1.68967e-015
rhumerus 42.7688 -19.0012 -45.4408
rradius 129.341
rwrist -59.9531
rhand -6.18719 -45.2272
rfingers 7.12502
rthumb 19.6524 -74.2539
lclavicle -1.22284e-014 1.68967e-015
lhumerus 17.452 -28.2463 23.3624
lradius 31.7131
lwrist 26.5794
lhand -16.4464 -23.6702
lfingers 7.12502
lthumb 9.76948 6.08318
rfemur -20.8444 -13.3973 21.7565
rtibia 54.5451
rfoot -33.3084 -30.7089
rtoes -0.70629
lfemur -26.8779 -12.8056 4.0737
ltibia 16.616
lfoot 10.147 16.8827
ltoes -10.8052
332
root 2.15265 16.2907 -4.56448 4.46228 -31.1422 -1.16548
lowerback -3.77182 0.509138 1.66603
upperback -2.54505 0.616639 0.201877
thorax -0.480931 0.284628 -0.706592
lowerneck -11.5148 6.2662 0.372763
upperneck 38.8969 11.0217 -4.91314
head 16.168 3.83529 -0.40043
rclavicle -1.17081e-014 -8.22472e-015
rhumerus 42.6222 -19.0559 -45.6387
rradius 129.379
rwrist -60.2403
rhand -5.71352 -45.7354
rfingers 7.12502
rthumb 20.1077 -74.7148
lclavicle -1.17081e-014 -8.22472e-015
lhumerus 17.6158 -28.6899 23.7253
lradius 31.4479
lwrist 26.9097
lhand -16.1232 -24.0433
lfingers 7.12502
lthumb 10.0813 5.69524
rfemur -21.0242 -13.4025 21.8307
rtibia 54.7762
rfoot -33.69 -30.5754
rtoes -0.257095
lfemur -27.0063 -12.7008 4.08726
ltibia 16.5876
lfoot 10.0866 16.7331
ltoes -10.1321
333
root 2.14323 16.2743 -4.58509 4.41186 -30.9618 -1.00611
lowerback -3.82405 0.532474 1.58645
upperback -2.55693 0.649187 0.0920698
thorax -0.462728 0.301152 -0.77302
lowerneck -11.3345 6.14779 0.217765
upperneck 38.8112 10.8401 -4.84181
head 16.0526 3.75672 -0.381416
rclavicle -3.49776e-015 1.20513e-015
rhumerus 42.5923 -18.9867 -45.9129
rradius 129.323
rwrist -60.0986
rhand -5.16451 -45.6287
rfingers 7.12502
rthumb 20.6353 -74.5518
lclavicle -3.49776e-015 1.20513e-015
lhumerus 17.3903 -28.8321 24.1406
lradius 31.5977
lwrist 26.9556
lhand -15.7653 -23.9249
lfingers 7.12502
lthumb 10.4266 5.79658
rfemur -21.2169 -13.4002 21.7943
rtibia 55.0405
rfoot -34.0998 -30.4414
rtoes 0.307974
lfemur -27.2024 -12.0791 3.81425
ltibia 16.6366
lfoot 10.0929 15.9638
ltoes -10.3705
